<?xml version="1.0" standalone="no"?>
<!DOCTYPE svg PUBLIC "-//W3C//DTD SVG 20010904//EN"
 "http://www.w3.org/TR/2001/REC-SVG-20010904/DTD/svg10.dtd">
<svg version="1.0" xmlns="http://www.w3.org/2000/svg"
 width="2560.000000pt" height="2560.000000pt" viewBox="0 0 2560.000000 2560.000000"
 preserveAspectRatio="xMidYMid meet">
<metadata>
Created by potrace 1.14, written by Peter Selinger 2001-2017
</metadata>
<g transform="translate(0.000000,2560.000000) scale(0.100000,-0.100000)"
fill="#000000" stroke="none">
<path d="M8169 20735 c-2 -2 -24 -6 -49 -9 -25 -3 -55 -8 -67 -11 -13 -3 -33
-7 -45 -11 -13 -3 -34 -7 -48 -10 -13 -3 -27 -8 -30 -12 -3 -4 -12 -8 -20 -10
-27 -5 -170 -76 -170 -84 0 -5 -7 -8 -15 -8 -8 0 -15 -4 -15 -10 0 -5 -6 -10
-14 -10 -8 0 -17 -7 -20 -16 -4 -9 -9 -14 -13 -11 -8 9 -164 -149 -188 -190
-11 -18 -23 -33 -27 -33 -4 0 -8 -6 -8 -14 0 -7 -7 -19 -15 -26 -8 -7 -13 -16
-10 -20 3 -5 1 -11 -5 -15 -10 -6 -48 -85 -65 -135 -1 -3 -4 -12 -8 -20 -29
-73 -41 -166 -40 -305 0 -82 4 -166 8 -185 4 -19 9 -42 10 -50 2 -8 4 -16 5
-17 2 -2 3 -6 4 -10 1 -5 5 -14 9 -20 5 -7 6 -13 2 -13 -3 0 1 -13 10 -30 9
-16 13 -30 10 -30 -3 0 2 -11 11 -25 9 -14 13 -25 9 -25 -3 0 2 -12 13 -27 11
-16 23 -38 26 -50 4 -13 12 -23 17 -23 6 0 7 -4 4 -10 -3 -5 -1 -10 5 -10 6 0
8 -4 5 -10 -3 -5 -2 -10 3 -10 5 0 21 -17 35 -37 29 -44 165 -183 178 -183 5
0 18 -8 28 -17 33 -30 43 -37 129 -80 45 -24 89 -43 97 -43 8 0 15 -4 15 -10
0 -5 6 -7 13 -4 7 2 30 -2 50 -11 20 -8 39 -15 42 -15 3 0 6 0 8 -1 3 -1 66
-8 112 -13 22 -2 42 -5 45 -6 7 -2 105 1 160 5 44 4 54 6 115 20 90 22 248 86
261 106 3 5 10 7 15 4 5 -4 9 -1 9 5 0 6 5 8 10 5 6 -3 10 -1 10 4 0 6 18 22
39 36 22 13 54 38 71 55 17 16 36 30 42 30 6 0 9 3 6 6 -3 3 10 22 29 42 52
56 57 62 98 127 132 208 180 471 130 720 -11 55 -68 215 -77 215 -5 0 -7 4 -3
9 3 5 -1 15 -8 23 -7 7 -20 28 -28 46 -7 17 -17 32 -21 32 -5 0 -8 7 -8 15 0
8 -4 15 -8 15 -4 0 -15 12 -24 28 -9 15 -42 52 -73 82 -31 30 -65 65 -77 77
-12 12 -25 20 -30 17 -4 -3 -8 -1 -8 4 0 16 -159 112 -185 112 -8 0 -15 4 -15
8 0 4 -10 8 -22 9 -11 1 -25 8 -29 15 -5 7 -9 9 -9 4 0 -6 -5 -5 -11 1 -6 6
-18 9 -25 6 -8 -3 -20 -1 -27 5 -13 11 -61 22 -113 26 -17 1 -35 5 -40 8 -10
6 -180 9 -185 3z"/>
<path d="M7290 13070 l0 -5240 -1395 0 -1395 0 2 -272 c3 -253 4 -273 21 -272
9 1 17 -3 17 -8 0 -7 4 -7 13 -1 6 6 21 8 32 6 24 -5 39 -5 83 0 18 3 35 0 38
-4 3 -5 14 -4 25 1 13 8 19 7 19 0 0 -6 5 -8 12 -4 18 11 71 11 85 1 8 -6 13
-6 13 0 0 11 39 11 58 0 6 -5 12 -4 12 0 0 10 41 10 57 0 7 -4 14 -4 17 1 6
10 66 9 84 -1 6 -5 12 -5 12 0 0 4 11 8 25 8 14 0 25 -4 25 -8 0 -5 6 -5 12
-1 18 11 48 12 54 2 3 -4 13 -4 22 0 21 10 73 9 90 -1 6 -5 12 -4 12 1 0 11
40 10 58 -1 6 -5 12 -5 12 0 0 9 79 10 95 2 6 -3 19 -4 30 -2 62 8 95 9 95 1
0 -5 5 -6 12 -2 17 11 65 12 79 3 7 -4 23 -3 35 1 15 6 26 5 30 -1 3 -6 11 -6
17 -1 15 10 67 10 85 -1 7 -5 12 -4 12 3 0 7 6 8 19 1 10 -6 21 -8 24 -5 10
11 97 10 97 0 0 -8 3 -8 8 -1 8 12 41 13 59 2 6 -4 14 -4 17 1 6 10 66 9 84
-1 7 -5 12 -3 12 3 0 7 6 8 19 1 10 -6 21 -8 24 -5 10 11 97 10 97 0 0 -8 3
-8 8 -1 9 13 62 15 62 2 0 -6 5 -6 13 0 6 5 28 8 47 6 50 -4 61 -4 98 0 18 3
35 0 38 -4 3 -5 14 -4 25 1 13 8 19 7 19 0 0 -6 5 -8 12 -4 18 11 71 11 86 1
7 -6 12 -6 12 0 0 11 39 11 58 0 6 -5 12 -4 12 0 0 10 41 10 57 0 7 -4 14 -4
17 1 6 10 66 9 84 -1 6 -5 12 -5 12 0 0 4 11 8 25 8 14 0 25 -4 25 -8 0 -5 6
-5 12 -1 18 11 48 12 54 2 3 -4 13 -4 22 0 21 10 73 9 90 -1 7 -5 12 -4 12 2
0 6 7 8 15 5 13 -5 15 -160 15 -1304 0 -855 3 -1301 10 -1305 6 -3 10 -1 10 5
0 6 5 8 13 3 17 -11 57 -12 63 -1 3 4 11 5 17 1 17 -11 60 -11 75 0 6 5 12 6
12 1 0 -5 18 -10 40 -10 24 -1 37 3 33 9 -4 6 -1 7 7 2 18 -11 170 -13 170 -2
0 4 6 5 13 0 17 -11 30 -11 44 -1 9 7 12 317 12 1266 0 691 0 1274 1 1294 0
37 0 37 43 38 23 0 56 1 72 3 17 1 40 -1 52 -5 12 -4 25 -3 28 3 4 5 11 6 18
2 12 -7 147 -6 154 1 3 3 16 1 29 -4 13 -5 24 -6 24 -1 0 8 36 8 45 -1 3 -3
23 -2 43 2 21 4 47 3 58 0 10 -4 26 -4 35 1 9 5 19 5 23 2 7 -7 136 -6 143 1
3 2 18 0 34 -4 17 -5 31 -5 35 1 3 5 10 6 16 3 13 -8 88 -11 88 -4 0 7 86 4
105 -4 8 -3 15 -2 15 3 0 8 36 8 45 -1 3 -3 23 -2 43 2 21 4 47 3 58 0 10 -4
26 -4 35 1 9 5 19 5 23 2 7 -7 136 -6 143 1 3 2 18 0 34 -4 17 -5 31 -5 35 1
3 5 10 6 17 2 12 -7 147 -6 154 1 3 3 16 1 29 -4 13 -5 24 -6 24 -1 0 8 36 8
45 -1 3 -3 23 -2 43 2 21 4 47 3 58 0 10 -4 26 -4 35 1 9 5 19 5 23 2 7 -7
136 -6 143 1 3 2 18 0 34 -4 17 -5 31 -5 35 1 3 5 10 6 16 3 13 -8 88 -11 88
-4 0 7 86 4 105 -4 8 -3 15 -2 15 3 0 8 36 8 45 -1 3 -2 25 -2 50 2 24 4 50 3
57 -1 6 -4 19 -4 28 1 9 5 22 5 29 1 7 -5 30 -5 51 -1 21 4 44 4 51 -1 7 -4
21 -3 30 2 10 5 20 5 23 0 3 -4 23 -5 44 -1 21 3 47 3 58 0 10 -4 26 -4 35 1
9 5 19 5 23 2 7 -7 136 -6 143 1 3 2 18 0 34 -4 17 -5 31 -5 35 1 3 5 10 6 16
3 13 -8 88 -11 88 -4 0 7 86 4 105 -4 8 -3 15 -2 15 3 0 6 34 7 50 1 3 -1 10
-1 15 0 6 2 102 4 215 5 113 1 212 5 219 10 8 5 12 4 8 -1 -7 -12 294 -11 313
1 7 5 11 4 7 -1 -7 -12 533 -11 552 1 9 5 12 4 8 -1 -7 -12 214 -11 233 1 7 5
11 4 7 -1 -7 -12 773 -11 792 1 8 5 12 4 8 -1 -7 -12 294 -11 313 1 7 5 11 4
7 -1 -7 -12 533 -11 552 1 9 5 12 4 8 -1 -7 -12 214 -11 233 1 7 5 11 4 7 -1
-7 -12 693 -11 712 1 9 5 12 4 8 -1 -7 -12 214 -11 233 1 8 5 11 4 7 -1 -7
-12 214 -11 233 1 8 5 11 4 7 -2 -7 -12 133 -10 153 2 8 5 11 4 7 -1 -7 -12
214 -11 233 1 8 5 11 4 7 -1 -7 -12 214 -11 233 1 8 5 11 4 7 -2 -7 -12 133
-10 153 2 8 5 11 4 7 -1 -7 -12 214 -11 233 1 8 5 11 4 7 -1 -7 -12 214 -11
233 1 8 5 11 4 7 -2 -7 -12 133 -10 153 2 8 5 11 4 7 -1 -7 -12 214 -11 233 1
8 5 11 4 7 -1 -7 -12 214 -11 233 1 7 5 11 4 7 -1 -3 -5 107 -9 266 -9 l272 0
0 152 c0 89 -3 149 -9 146 -5 -4 -6 0 -1 7 12 19 13 320 1 313 -5 -4 -6 0 -1
7 12 19 13 320 1 313 -5 -4 -6 0 -1 8 12 19 13 799 1 792 -5 -4 -6 0 -1 7 12
19 13 240 1 233 -5 -4 -6 -1 -1 8 12 19 13 559 1 552 -5 -4 -6 0 -1 7 12 19
13 320 1 313 -5 -4 -6 0 -1 7 12 19 13 320 1 313 -5 -4 -6 0 -1 7 12 19 13
320 1 313 -5 -4 -6 0 -1 8 12 19 13 799 1 792 -5 -4 -6 0 -1 7 12 19 13 240 1
233 -5 -4 -6 -1 -1 8 12 19 13 559 1 552 -5 -4 -6 0 -1 7 12 19 13 320 1 313
-5 -4 -6 0 -1 7 12 19 13 320 1 313 -5 -4 -6 0 -1 7 12 19 13 320 1 313 -5 -4
-6 0 -1 8 12 19 13 799 1 792 -5 -4 -6 0 -1 7 12 19 13 240 1 233 -5 -4 -6 -1
-1 8 12 19 13 559 1 552 -5 -4 -6 0 -1 7 12 19 13 320 1 313 -5 -4 -6 0 -1 7
12 19 13 320 1 313 -5 -4 -6 0 -1 7 12 19 13 320 1 313 -5 -4 -6 0 -1 8 12 19
13 799 1 792 -5 -4 -6 0 -1 7 12 19 13 240 1 233 -5 -4 -6 -1 -1 8 12 19 13
559 1 552 -5 -4 -6 0 -1 7 12 19 13 320 1 313 -5 -4 -6 0 0 8 4 7 8 118 9 246
l0 233 -5512 0 -5513 0 0 -5240z"/>
<path d="M19002 7558 l3 -271 1133 -1 1132 -1 1 55 c0 50 0 414 -1 468 l0 22
-1135 0 -1135 0 2 -272z"/>
</g>
</svg>
